<?xml version="1.0" standalone="no"?>
<!DOCTYPE svg PUBLIC "-//W3C//DTD SVG 20010904//EN"
 "http://www.w3.org/TR/2001/REC-SVG-20010904/DTD/svg10.dtd">
<svg version="1.0" xmlns="http://www.w3.org/2000/svg"
 width="260.000000pt" height="260.000000pt" viewBox="0 0 260.000000 260.000000"
 preserveAspectRatio="xMidYMid meet">
<metadata>
Created by potrace 1.14, written by Peter Selinger 2001-2017
</metadata>
<g transform="translate(0.000000,260.000000) scale(0.100000,-0.100000)"
fill="#000000" stroke="none">
<path d="M420 2020 c-76 -26 -153 -108 -176 -187 -31 -106 -6 -257 62 -378 78
-140 295 -265 459 -265 53 0 165 37 224 74 132 84 231 258 231 407 0 39 5 51
26 68 35 27 59 26 89 -4 20 -20 25 -34 25 -78 0 -162 114 -338 271 -416 137
-68 253 -66 405 9 148 74 246 186 288 329 21 72 22 255 1 304 -23 55 -74 108
-130 133 -49 23 -57 24 -348 24 -342 0 -338 1 -428 -85 l-58 -55 -81 0 -82 0
-58 54 c-90 82 -108 86 -409 86 -224 -1 -263 -3 -311 -20z m556 -151 c41 -25
84 -95 84 -136 0 -17 -9 -42 -20 -56 -67 -84 -230 9 -230 131 0 72 94 106 166
61z m1125 -2 c48 -32 79 -83 79 -129 0 -53 -13 -74 -55 -88 -45 -15 -106 11
-152 64 -27 30 -33 45 -33 82 0 87 83 124 161 71z"/>
<path d="M897 1110 c-70 -55 -11 -147 138 -216 176 -81 416 -66 572 35 101 65
128 127 77 177 -33 33 -65 26 -119 -26 -71 -69 -120 -84 -275 -85 -133 0 -136
1 -202 33 -37 18 -75 43 -85 56 -19 23 -54 46 -71 46 -5 0 -21 -9 -35 -20z"/>
</g>
</svg>
